<svg width="228" height="256" viewBox="0 0 228 256" fill="none" xmlns="http://www.w3.org/2000/svg">
<path d="M152.836 74.9064L164.125 78.6186C164.125 78.6186 159.923 89.571 158.216 91.6528C156.51 93.7346 126.196 118.565 106.994 137.249C82.6411 160.947 48.1612 201.333 48.1612 201.333L23.3938 204.348L26.4091 179.581C26.4091 179.581 67.3523 144.63 91.3348 119.906C109.666 101.008 135.037 70.5781 136.089 69.5257C137.142 68.4734 149.498 63.9922 149.498 63.9922L152.836 74.9064Z" fill="#969696" stroke="black" stroke-width="3"/>
<path d="M164.733 78.3851C165.483 79.1352 172.621 96.3752 172.621 96.3752L179.21 85.2851C175.118 81.0288 169.295 74.9487 168.732 74.3861C168.17 73.8236 168.235 69.2581 168.235 69.2581L158.671 59.6947C158.671 59.6947 154.106 59.7597 153.731 59.3847C153.356 59.0097 142.644 48.7191 142.644 48.7191L130.969 55.1443C130.969 55.1443 148.794 62.4461 149.357 63.0087C149.919 63.5712 152.415 75.3273 152.415 75.3273C152.415 75.3273 163.983 77.635 164.733 78.3851Z" fill="#7A7123" stroke="black" stroke-width="3"/>
<path d="M191.903 26.838L200.904 35.8388L167.86 68.8833L159.046 60.07L191.903 26.838Z" fill="#5A4639" stroke="black" stroke-width="3"/>
<path d="M191.926 26.4399L201.302 35.8157C201.302 35.8157 202.684 35.9344 203.082 35.9114C203.48 35.8885 206.028 32.9648 206.239 32.7543C206.449 32.5438 207.303 21.1896 206.927 20.8146C206.552 20.4395 195.386 21.4803 195.175 21.6908C194.965 21.9013 192.041 24.4499 192.018 24.8479L191.926 26.4399Z" fill="#3C3C3C" stroke="black" stroke-width="3"/>
<g clip-path="url(#clip0_67_41)">
<path d="M155.907 164.29C155.907 118.435 123.061 90.9219 82.5391 90.9219C42.0216 90.9219 9.17102 118.435 9.17102 164.29C9.17102 189.85 9.18019 211.924 36.684 222.251V242.243C36.684 244.05 37.0399 245.839 37.7312 247.508C38.4225 249.177 39.4358 250.693 40.7132 251.971C41.9906 253.248 43.5071 254.261 45.1762 254.953C46.8452 255.644 48.634 256 50.4405 256C52.2471 256 54.0359 255.644 55.7049 254.953C57.3739 254.261 58.8904 253.248 60.1679 251.971C61.4453 250.693 62.4586 249.177 63.1499 247.508C63.8412 245.839 64.197 244.05 64.197 242.243V227.776C65.6828 227.9 67.2189 228.005 68.7825 228.097V242.243C68.7825 245.892 70.2319 249.391 72.8117 251.971C75.3916 254.551 78.8906 256 82.5391 256C86.1875 256 89.6865 254.551 92.2664 251.971C94.8462 249.391 96.2956 245.892 96.2956 242.243V228.097C97.8638 228.001 99.3954 227.9 100.881 227.776V242.243C100.881 245.892 102.33 249.391 104.91 251.971C107.49 254.551 110.989 256 114.638 256C118.286 256 121.785 254.551 124.365 251.971C126.945 249.391 128.394 245.892 128.394 242.243V222.251C155.898 211.924 155.907 189.85 155.907 164.29Z" fill="#CCD6DD"/>
<path d="M114.364 102.412L118.65 99.3048C116.393 98.0151 114.781 97.3703 112.202 96.403L105.265 103.383L104.116 99.2588L100.219 103.924L94.4937 103.658L98.5759 105.889L95.4566 109.623L91.7227 109.45L94.3855 110.905L88.9874 117.367L97.7934 110.788L97.9362 112.366L99.6499 109.4L101.172 108.263L102.126 110.435L103.186 113.343L104.763 109.13L109.393 105.889L109.834 109.967L111.55 107.106L114.667 107.998L112.574 105.399L114.364 102.412Z" fill="black"/>
<path d="M50.4405 178.046C63.103 178.046 73.368 167.781 73.368 155.119C73.368 142.456 63.103 132.191 50.4405 132.191C37.778 132.191 27.513 142.456 27.513 155.119C27.513 167.781 37.778 178.046 50.4405 178.046Z" fill="#292F33"/>
<path d="M114.638 178.046C127.3 178.046 137.565 167.781 137.565 155.119C137.565 142.456 127.3 132.191 114.638 132.191C101.975 132.191 91.71 142.456 91.71 155.119C91.71 167.781 101.975 178.046 114.638 178.046Z" fill="#292F33"/>
<path d="M91.2652 196.673C90.1097 193.862 86.666 191.803 82.539 191.803C78.4121 191.803 74.9638 193.862 73.8128 196.673C72.3688 197.071 71.095 197.931 70.1865 199.122C69.278 200.313 68.7848 201.769 68.7825 203.267C68.7825 205.091 69.5072 206.84 70.7971 208.13C72.087 209.42 73.8366 210.145 75.6608 210.145C78.6643 210.145 81.1909 208.21 82.1263 205.527C82.2639 205.532 82.3969 205.559 82.539 205.559C82.6812 205.559 82.8142 205.532 82.9517 205.527C83.338 206.643 84.0058 207.641 84.8906 208.423C85.7753 209.205 86.847 209.746 88.002 209.993C89.1569 210.239 90.356 210.183 91.4831 209.831C92.6102 209.478 93.6271 208.84 94.4355 207.979C95.2438 207.118 95.8162 206.063 96.0973 204.916C96.3783 203.769 96.3584 202.569 96.0396 201.432C95.7207 200.295 95.1137 199.259 94.2773 198.425C93.4409 197.592 92.4034 196.988 91.2652 196.673Z" fill="#292F33"/>
<path d="M127.236 109.139L130.644 107.243C129.48 105.999 128.842 105.476 127.086 104.217L120.89 109.333L120.312 106.42L117.371 109.442L113.425 108.958L116.132 110.716L113.778 113.135L111.204 112.819L112.969 113.965L108.896 118.153L115.333 114.063L115.349 115.163L116.69 113.201L117.803 112.494L118.349 114.047L118.929 116.114L120.241 113.282L123.615 111.284L123.705 114.128L125.043 112.239L127.152 113.02L125.841 111.112L127.236 109.139Z" fill="black"/>
<path d="M125.253 111.418L123.69 108.865C122.774 109.798 122.393 110.303 121.484 111.69L125.604 116.277L123.389 116.813L125.8 118.971L125.555 122.013L126.816 119.881L128.746 121.609L128.587 123.592L129.409 122.202L132.749 125.191L129.409 120.387L130.251 120.339L128.704 119.374L128.127 118.543L129.299 118.075L130.866 117.564L128.653 116.648L127.013 114.126L129.191 113.965L127.699 113L128.231 111.358L126.81 112.425L125.253 111.418Z" fill="black"/>
</g>
<defs>
<clipPath id="clip0_67_41">
<rect width="165.078" height="165.078" fill="white" transform="translate(0 90.9219)"/>
</clipPath>
</defs>
</svg>
